# xmcd CD database file
#
# Track frame offsets:
#	150
#	16125
#	27142
#	39232
#	50530
#	64837
#	76415
#	91840
#	106962
#	129130
#	143732
#	156162
#	175430
#	195072
#	208107
#	223510
#
# Disc length: 3157 seconds
#
# Revision: 2
# Processed by: cddbd v1.5PL3 Copyright (c) Steve Scherf et al.
# Submitted via: CDex 1.40Release
#
DISCID=c80c5310
DTITLE=Don Edwards - Saddle Songs [CD1]
DYEAR=1997
DGENRE=Country
TTITLE0=Ballad of Jack Thorp
TTITLE1=Old Chisholm Trail
TTITLE2=Whoopi Ti Yi Yo
TTITLE3=Pecos River Queen
TTITLE4=Cowboy Jack
TTITLE5=Chopo
TTITLE6=Zebra Dun
TTITLE7=Patonio
TTITLE8=Sam Bass
TTITLE9=Streets Of Laredo
TTITLE10=Night Herding Song
TTITLE11=Little Joe The Wrangler
TTITLE12=Little Joe The Wrangler's Sister Nell
TTITLE13=Railroad Corral
TTITLE14=The Pecos Stream
TTITLE15=What's Become Of The Punchers
EXTD=YEAR: 1997 ID3G: 2
EXTT0=
EXTT1=
EXTT2=
EXTT3=
EXTT4=
EXTT5=
EXTT6=
EXTT7=
EXTT8=
EXTT9=
EXTT10=
EXTT11=
EXTT12=
EXTT13=
EXTT14=
EXTT15=
PLAYORDER=
